# xmcd
#
# Track frame offsets: 
#        150
#        10935
#        30457
#        50342
#        75087
#        93692
#        106877
#        122120
#        133832
#        156235
#        177235
#        197745
#
# Disc length: 2963 seconds
#
# Revision: 7
# Processed by: cddbd v1.5.2PL0 Copyright (c) Steve Scherf et al.
# Submitted via: ExactAudioCopy v0.99pb5
#
DISCID=930b910c
DTITLE=Various Artist - The Matrix Reloaded: The Album, Music From And Inspir
DTITLE=ed By The Motion Picture, Disc One
DYEAR=2003
DGENRE=Soundtrack
TTITLE0=Linkin Park - Session
TTITLE1=Marilyn Manson - This Is The New Shit
TTITLE2=Rob Zombie - Reload
TTITLE3=Rob Dougan - Furious Angels
TTITLE4=Deftones - Lucky You
TTITLE5=Team Sleep - The Passportal
TTITLE6=P.O.D. - Sleeping Awake
TTITLE7=Ünloco - Bruises
TTITLE8=Rage Against The Machine - Calm Like A Bomb
TTITLE9=Oakenfold - Dread Rock
TTITLE10=Fluke - Zion
TTITLE11=Dave Matthews Band - When The World Ends (Oakenfold Remix)
EXTD=fh YEAR: 2004
EXTT0=
EXTT1=
EXTT2=
EXTT3=
EXTT4=
EXTT5=
EXTT6=
EXTT7=
EXTT8=
EXTT9=
EXTT10=
EXTT11=
PLAYORDER=
